<svg width="24" height="13" viewBox="0 0 24 13" fill="none" xmlns="http://www.w3.org/2000/svg">
<path d="M11.3864 6.18182C11.3864 7.42424 11.1591 8.49242 10.7045 9.38636C10.25 10.2765 9.62689 10.9621 8.83523 11.4432C8.04735 11.9205 7.15152 12.1591 6.14773 12.1591C5.14015 12.1591 4.24053 11.9205 3.44886 11.4432C2.66098 10.9621 2.03977 10.2746 1.58523 9.38068C1.13068 8.48674 0.903409 7.42045 0.903409 6.18182C0.903409 4.93939 1.13068 3.87311 1.58523 2.98295C2.03977 2.08901 2.66098 1.40341 3.44886 0.926136C4.24053 0.445075 5.14015 0.204545 6.14773 0.204545C7.15152 0.204545 8.04735 0.445075 8.83523 0.926136C9.62689 1.40341 10.25 2.08901 10.7045 2.98295C11.1591 3.87311 11.3864 4.93939 11.3864 6.18182ZM9.64773 6.18182C9.64773 5.23485 9.49432 4.4375 9.1875 3.78977C8.88447 3.13826 8.4678 2.64583 7.9375 2.3125C7.41098 1.97538 6.81439 1.80682 6.14773 1.80682C5.47727 1.80682 4.87879 1.97538 4.35227 2.3125C3.82576 2.64583 3.40909 3.13826 3.10227 3.78977C2.79924 4.4375 2.64773 5.23485 2.64773 6.18182C2.64773 7.12879 2.79924 7.92803 3.10227 8.57955C3.40909 9.22727 3.82576 9.7197 4.35227 10.0568C4.87879 10.3902 5.47727 10.5568 6.14773 10.5568C6.81439 10.5568 7.41098 10.3902 7.9375 10.0568C8.4678 9.7197 8.88447 9.22727 9.1875 8.57955C9.49432 7.92803 9.64773 7.12879 9.64773 6.18182ZM23.2401 4.14773H21.4673C21.3991 3.76894 21.2723 3.43561 21.0866 3.14773C20.901 2.85985 20.6738 2.61553 20.4048 2.41477C20.1359 2.21401 19.8348 2.0625 19.5014 1.96023C19.1719 1.85795 18.8215 1.80682 18.4503 1.80682C17.7798 1.80682 17.1795 1.97538 16.6491 2.3125C16.1226 2.64962 15.706 3.14394 15.3991 3.79545C15.0961 4.44697 14.9446 5.24242 14.9446 6.18182C14.9446 7.12879 15.0961 7.92803 15.3991 8.57955C15.706 9.23106 16.1245 9.72348 16.6548 10.0568C17.1851 10.3902 17.7817 10.5568 18.4446 10.5568C18.812 10.5568 19.1605 10.5076 19.4901 10.4091C19.8234 10.3068 20.1245 10.1572 20.3935 9.96023C20.6624 9.76326 20.8897 9.52273 21.0753 9.23864C21.2647 8.95076 21.3954 8.62121 21.4673 8.25L23.2401 8.25568C23.1454 8.82765 22.9616 9.35417 22.6889 9.83523C22.42 10.3125 22.0734 10.7254 21.6491 11.0739C21.2287 11.4186 20.7476 11.6856 20.206 11.875C19.6643 12.0644 19.0734 12.1591 18.4332 12.1591C17.4257 12.1591 16.5279 11.9205 15.7401 11.4432C14.9522 10.9621 14.331 10.2746 13.8764 9.38068C13.4257 8.48674 13.2003 7.42045 13.2003 6.18182C13.2003 4.93939 13.4276 3.87311 13.8821 2.98295C14.3366 2.08901 14.9579 1.40341 15.7457 0.926136C16.5336 0.445075 17.4295 0.204545 18.4332 0.204545C19.0507 0.204545 19.6264 0.29356 20.1605 0.471591C20.6984 0.645833 21.1813 0.903409 21.6094 1.24432C22.0374 1.58144 22.3916 1.99432 22.6719 2.48295C22.9522 2.9678 23.1416 3.52273 23.2401 4.14773Z" fill="white"/>
</svg>
